<svg width="25" height="24" viewBox="0 0 25 24" fill="none" xmlns="http://www.w3.org/2000/svg">
<g clip-path="url(#clip0_328_2732)">
<path d="M24.3459 23H1.34596C1.06996 23 0.845947 23.224 0.845947 23.5C0.845947 23.776 1.06996 24 1.34596 24H24.346C24.622 24 24.846 23.776 24.846 23.5C24.8459 23.224 24.6219 23 24.3459 23Z" fill="#E7ECFD"/>
<path d="M5.34596 17H2.34596C2.06996 17 1.84595 17.224 1.84595 17.5V23.5C1.84595 23.776 2.06996 24 2.34596 24H5.34596C5.62196 24 5.84598 23.776 5.84598 23.5V17.5C5.84598 17.224 5.62196 17 5.34596 17ZM4.84595 23H2.84598V18H4.84599V23H4.84595Z" fill="#E7ECFD"/>
<path d="M11.346 12H8.34596C8.06996 12 7.84595 12.224 7.84595 12.5V23.5C7.84595 23.776 8.06996 24 8.34596 24H11.346C11.622 24 11.846 23.776 11.846 23.5V12.5C11.846 12.224 11.622 12 11.346 12ZM10.8459 23H8.84593V13H10.8459V23Z" fill="#E7ECFD"/>
<path d="M17.346 14H14.346C14.07 14 13.8459 14.224 13.8459 14.5V23.5C13.8459 23.776 14.07 24 14.346 24H17.346C17.622 24 17.846 23.776 17.846 23.5V14.5C17.846 14.224 17.622 14 17.346 14ZM16.8459 23H14.8459V15H16.8459V23Z" fill="#E7ECFD"/>
<path d="M23.346 8.00003H20.346C20.07 8.00003 19.8459 8.22405 19.8459 8.50005V23.5C19.8459 23.776 20.07 24.0001 20.346 24.0001H23.346C23.622 24.0001 23.846 23.776 23.846 23.5V8.50005C23.846 8.224 23.622 8.00003 23.346 8.00003ZM22.8459 23H20.8459V9.00001H22.8459V23Z" fill="#E7ECFD"/>
<path d="M3.84596 9C2.74295 9 1.84595 9.897 1.84595 11C1.84595 12.103 2.74295 13 3.84596 13C4.94898 13 5.84598 12.103 5.84598 11C5.84598 9.897 4.94898 9 3.84596 9ZM3.84596 12C3.29396 12 2.84598 11.551 2.84598 11C2.84598 10.449 3.29396 10 3.84596 10C4.39796 10 4.84595 10.449 4.84595 11C4.84595 11.551 4.39796 12 3.84596 12Z" fill="#E7ECFD"/>
<path d="M9.84596 3.99997C8.74295 3.99997 7.84595 4.89697 7.84595 5.99998C7.84595 7.103 8.74295 7.99999 9.84596 7.99999C10.949 7.99999 11.846 7.103 11.846 5.99998C11.846 4.89697 10.949 3.99997 9.84596 3.99997ZM9.84596 6.99996C9.29396 6.99996 8.84598 6.55095 8.84598 5.99998C8.84598 5.44897 9.29396 5 9.84596 5C10.398 5 10.8459 5.44901 10.8459 5.99998C10.8459 6.551 10.398 6.99996 9.84596 6.99996Z" fill="#E7ECFD"/>
<path d="M15.846 6C14.7429 6 13.8459 6.897 13.8459 8.00002C13.8459 9.10303 14.7429 10 15.846 10C16.949 10 17.846 9.10303 17.846 8.00002C17.846 6.897 16.949 6 15.846 6ZM15.846 9C15.294 9 14.846 8.55098 14.846 8.00002C14.846 7.449 15.294 7.00003 15.846 7.00003C16.398 7.00003 16.8459 7.44905 16.8459 8.00002C16.8459 8.55098 16.398 9 15.846 9Z" fill="#E7ECFD"/>
<path d="M21.846 0C20.7429 0 19.8459 0.897 19.8459 2.00002C19.8459 3.10303 20.7429 4.00003 21.846 4.00003C22.949 4.00003 23.846 3.10303 23.846 2.00002C23.846 0.897 22.949 0 21.846 0ZM21.846 3C21.294 3 20.846 2.55098 20.846 2.00002C20.846 1.449 21.294 1.00003 21.846 1.00003C22.398 1.00003 22.8459 1.44905 22.8459 2.00002C22.8459 2.55098 22.398 3 21.846 3Z" fill="#E7ECFD"/>
<path d="M21.14 2.70597C20.945 2.51097 20.628 2.51097 20.433 2.70597L16.553 6.58596C16.358 6.78096 16.358 7.09797 16.553 7.29297C16.651 7.38996 16.779 7.43899 16.907 7.43899C17.034 7.43899 17.162 7.39099 17.26 7.29297L21.14 3.41299C21.335 3.21799 21.335 2.90097 21.14 2.70597Z" fill="#E7ECFD"/>
<path d="M14.6368 6.84598L11.4247 5.93C11.1557 5.852 10.8827 6.008 10.8077 6.27401C10.7317 6.54003 10.8857 6.81603 11.1507 6.89201L14.3627 7.808C14.4087 7.82098 14.4547 7.82698 14.4997 7.82698C14.7178 7.82698 14.9177 7.68397 14.9807 7.46398C15.0568 7.199 14.9028 6.92197 14.6368 6.84598Z" fill="#E7ECFD"/>
<path d="M9.06609 6.62304C8.8941 6.40704 8.58009 6.37202 8.36409 6.54302L4.59407 9.54902C4.37807 9.72204 4.34207 10.036 4.51508 10.252C4.61408 10.376 4.7601 10.44 4.90607 10.44C5.01505 10.44 5.12507 10.404 5.21708 10.332L8.9871 7.32602C9.2031 7.153 9.2391 6.83904 9.06609 6.62304Z" fill="#E7ECFD"/>
</g>
<defs>
<clipPath id="clip0_328_2732">
<rect width="24" height="24" fill="white" transform="translate(0.845947)"/>
</clipPath>
</defs>
</svg>
