<svg width="25" height="24" viewBox="0 0 25 24" fill="none" xmlns="http://www.w3.org/2000/svg">
<path d="M12.3459 0C5.71387 0 0.345947 5.367 0.345947 12C0.345947 14.1048 0.894897 16.1605 1.93732 17.9736L0.391174 22.775C0.283325 23.1097 0.371948 23.4767 0.620605 23.7253C0.866882 23.9716 1.23291 24.0635 1.57092 23.9548L6.37231 22.4086C8.18542 23.451 10.2411 24 12.3459 24C18.978 24 24.3459 18.633 24.3459 12C24.3459 5.36792 18.9789 0 12.3459 0ZM12.3459 22.125C10.4448 22.125 8.59155 21.5945 6.98663 20.5909C6.75574 20.4467 6.46899 20.4077 6.20221 20.4935L2.73621 21.6097L3.85242 18.1437C3.93701 17.8808 3.90131 17.5937 3.75482 17.3593C2.7514 15.7544 2.22095 13.9012 2.22095 12C2.22095 6.41711 6.76306 1.875 12.3459 1.875C17.9288 1.875 22.4709 6.41711 22.4709 12C22.4709 17.5829 17.9288 22.125 12.3459 22.125ZM13.5178 12C13.5178 12.6471 12.9932 13.1719 12.3459 13.1719C11.6987 13.1719 11.1741 12.6471 11.1741 12C11.1741 11.3527 11.6987 10.8281 12.3459 10.8281C12.9932 10.8281 13.5178 11.3527 13.5178 12ZM18.2053 12C18.2053 12.6471 17.6807 13.1719 17.0334 13.1719C16.3862 13.1719 15.8616 12.6471 15.8616 12C15.8616 11.3527 16.3862 10.8281 17.0334 10.8281C17.6807 10.8281 18.2053 11.3527 18.2053 12ZM8.83032 12C8.83032 12.6471 8.30573 13.1719 7.65845 13.1719C7.01135 13.1719 6.48657 12.6471 6.48657 12C6.48657 11.3527 7.01135 10.8281 7.65845 10.8281C8.30573 10.8281 8.83032 11.3527 8.83032 12Z" fill="#E7ECFD"/>
</svg>
