<svg width="16" height="14" viewBox="0 0 16 14" fill="none" xmlns="http://www.w3.org/2000/svg">
<path d="M15.8907 6.52811C14.9196 5.25573 13.7532 4.14504 12.4348 3.23728L14.6896 0.982444C14.9166 0.763205 14.9229 0.401467 14.7037 0.174461C14.4844 -0.0525464 14.1227 -0.058841 13.8957 0.160398C13.8909 0.164985 13.8863 0.169673 13.8816 0.174461L11.4182 2.63558C10.3697 2.05848 9.19663 1.74473 7.99999 1.72129C3.65717 1.72129 0.252076 6.33154 0.109209 6.52807C-0.0364031 6.7284 -0.0364031 6.99973 0.109209 7.20006C1.08038 8.47243 2.24679 9.58313 3.56516 10.4909L1.31033 12.7457C1.08333 12.965 1.07703 13.3267 1.29627 13.5537C1.51551 13.7807 1.87725 13.787 2.10425 13.5678C2.10901 13.5632 2.1137 13.5585 2.11832 13.5537L4.5817 11.0926C5.63025 11.6697 6.80332 11.9834 7.99996 12.0069C12.3428 12.0069 15.7479 7.39663 15.8907 7.20006C16.0364 6.99977 16.0364 6.72843 15.8907 6.52811ZM4.39601 9.66177C3.23195 8.88647 2.18853 7.94379 1.29949 6.8641C2.14061 5.84525 4.86858 2.86412 7.99999 2.86412C8.89091 2.88214 9.76682 3.09679 10.5651 3.49268L9.5731 4.48468C8.26061 3.61331 6.49023 3.9709 5.61887 5.28339C4.98412 6.23946 4.98412 7.48284 5.61887 8.43892L4.39601 9.66177ZM9.54283 6.12981C9.65466 6.35849 9.71329 6.60954 9.71426 6.8641C9.71426 7.81086 8.94676 8.57837 7.99999 8.57837C7.74543 8.5774 7.49438 8.51877 7.2657 8.40694L9.54283 6.12981ZM6.45715 7.59836C6.34532 7.36967 6.2867 7.11863 6.28573 6.86406C6.28573 5.9173 7.05323 5.14979 7.99999 5.14979C8.25455 5.15077 8.5056 5.20939 8.73428 5.32122L6.45715 7.59836ZM7.99999 10.864C7.10908 10.846 6.23319 10.6314 5.43489 10.2355L6.42688 9.24349C7.73937 10.1149 9.50975 9.75726 10.3811 8.44478C11.0159 7.4887 11.0159 6.24532 10.3811 5.28925L11.604 4.06639C12.768 4.84169 13.8115 5.78441 14.7005 6.86406C13.8593 7.88295 11.1314 10.864 7.99999 10.864Z" fill="#ABBBF2"/>
</svg>
