<svg width="25" height="24" viewBox="0 0 25 24" fill="none" xmlns="http://www.w3.org/2000/svg">
<path d="M23.7003 10.4389C23.6996 10.4383 23.699 10.4376 23.6985 10.437L13.9084 0.647279C13.4911 0.229798 12.9363 0 12.3461 0C11.756 0 11.2012 0.229798 10.7837 0.647279L0.998683 10.4321C0.995387 10.4354 0.991908 10.4389 0.988795 10.4422C0.13186 11.304 0.133325 12.7024 0.993007 13.5621C1.38577 13.955 1.90432 14.1825 2.45895 14.2064C2.48166 14.2086 2.50436 14.2097 2.52725 14.2097H2.91727V21.4142C2.91727 22.8401 4.07742 24 5.50327 24H9.33348C9.72184 24 10.0366 23.6851 10.0366 23.2969V17.6485C10.0366 16.9979 10.566 16.4687 11.2165 16.4687H13.4757C14.1263 16.4687 14.6554 16.9979 14.6554 17.6485V23.2969C14.6554 23.6851 14.9702 24 15.3586 24H19.1888C20.6148 24 21.7748 22.8401 21.7748 21.4142V14.2097H22.1366C22.7266 14.2097 23.2814 13.9799 23.699 13.5623C24.5596 12.7013 24.56 11.3004 23.7003 10.4389ZM22.7046 12.568C22.5528 12.7198 22.351 12.8035 22.1366 12.8035H21.0717C20.6833 12.8035 20.3685 13.1183 20.3685 13.5066V21.4142C20.3685 22.0646 19.8394 22.5938 19.1888 22.5938H16.0617V17.6485C16.0617 16.2226 14.9017 15.0625 13.4757 15.0625H11.2165C9.79051 15.0625 8.63035 16.2226 8.63035 17.6485V22.5938H5.50327C4.85288 22.5938 4.32352 22.0646 4.32352 21.4142V13.5066C4.32352 13.1183 4.00876 12.8035 3.62039 12.8035H2.57376C2.56277 12.8028 2.55197 12.8022 2.5408 12.802C2.33133 12.7984 2.13485 12.7152 1.98764 12.5678C1.67453 12.2547 1.67453 11.7451 1.98764 11.4318C1.98782 11.4318 1.98782 11.4317 1.988 11.4315L1.98855 11.4309L11.7783 1.64154C11.9299 1.48975 12.1315 1.40625 12.3461 1.40625C12.5605 1.40625 12.7621 1.48975 12.9139 1.64154L22.7015 11.4289C22.7029 11.4304 22.7046 11.4318 22.7061 11.4333C23.0175 11.747 23.017 12.2555 22.7046 12.568Z" fill="#E7ECFD"/>
</svg>
