<svg width="168" height="200" viewBox="0 0 168 200" fill="none" xmlns="http://www.w3.org/2000/svg">
<path d="M144.583 59.5354L156.558 47.5604L144.775 35.7729L131.964 48.5833C120.262 40.2899 106.605 35.1786 92.3332 33.75V16.6667H109V0H58.9999V16.6667H75.6665V33.75C61.3944 35.1786 47.7381 40.2899 36.0353 48.5833L23.2249 35.7729L11.4415 47.5604L23.4165 59.5354C12.2386 71.3704 4.77189 86.2203 1.93848 102.251C-0.894922 118.282 1.02908 134.791 7.47289 149.741C13.9167 164.691 24.5981 177.426 38.198 186.373C51.7979 195.32 67.7206 200.089 83.9999 200.089C100.279 200.089 116.202 195.32 129.802 186.373C143.402 177.426 154.083 164.691 160.527 149.741C166.971 134.791 168.895 118.282 166.061 102.251C163.228 86.2203 155.761 71.3704 144.583 59.5354ZM83.9999 183.333C70.8145 183.333 57.9251 179.423 46.9619 172.098C35.9986 164.773 27.4538 154.361 22.4079 142.179C17.3621 129.997 16.0418 116.593 18.6142 103.661C21.1865 90.7286 27.5359 78.8497 36.8594 69.5262C46.1829 60.2027 58.0618 53.8533 70.9939 51.281C83.9259 48.7086 97.3304 50.0289 109.512 55.0747C121.694 60.1205 132.106 68.6654 139.431 79.6286C146.757 90.5919 150.667 103.481 150.667 116.667C150.647 134.342 143.617 151.287 131.118 163.785C118.62 176.283 101.675 183.313 83.9999 183.333Z" fill="#4D53E5"/>
<path d="M84 66.6667V116.667H34C34 126.556 36.9324 136.223 42.4265 144.445C47.9206 152.668 55.7295 159.076 64.8658 162.861C74.0021 166.645 84.0555 167.635 93.7545 165.706C103.454 163.777 112.363 159.015 119.355 152.022C126.348 145.029 131.11 136.12 133.039 126.421C134.969 116.722 133.978 106.669 130.194 97.5325C126.41 88.3962 120.001 80.5873 111.779 75.0932C103.556 69.5991 93.8891 66.6667 84 66.6667Z" fill="#4D53E5"/>
</svg>
