<svg width="25" height="24" viewBox="0 0 25 24" fill="none" xmlns="http://www.w3.org/2000/svg">
<path d="M12.1749 11.5609C13.7632 11.5609 15.1383 10.9913 16.2622 9.86735C17.3857 8.74364 17.9555 7.3687 17.9555 5.78026C17.9555 4.19237 17.3859 2.81726 16.262 1.69317C15.1381 0.56964 13.763 0 12.1749 0C10.5865 0 9.21154 0.56964 8.08783 1.69336C6.96411 2.81707 6.39429 4.19219 6.39429 5.78026C6.39429 7.3687 6.96411 8.74382 8.08783 9.86753C9.21191 10.9911 10.587 11.5609 12.1749 11.5609ZM9.08245 2.6878C9.94469 1.82556 10.9562 1.40643 12.1749 1.40643C13.3935 1.40643 14.4051 1.82556 15.2676 2.6878C16.1298 3.55023 16.5491 4.56188 16.5491 5.78026C16.5491 6.99901 16.1298 8.01048 15.2676 8.87291C14.4051 9.73533 13.3935 10.1545 12.1749 10.1545C10.9565 10.1545 9.94506 9.73515 9.08245 8.87291C8.22003 8.01067 7.80072 6.99901 7.80072 5.78026C7.80072 4.56188 8.22003 3.55023 9.08245 2.6878Z" fill="#E7ECFD"/>
<path d="M22.2895 18.4548C22.257 17.9872 22.1915 17.477 22.095 16.9383C21.9976 16.3956 21.8722 15.8825 21.722 15.4136C21.5667 14.9289 21.356 14.4503 21.0951 13.9916C20.8246 13.5155 20.5067 13.101 20.1501 12.7599C19.7771 12.403 19.3204 12.1161 18.7923 11.9068C18.2661 11.6986 17.6829 11.5931 17.0591 11.5931C16.8141 11.5931 16.5771 11.6936 16.1195 11.9916C15.8379 12.1752 15.5085 12.3876 15.1408 12.6225C14.8265 12.8229 14.4006 13.0105 13.8745 13.1805C13.3612 13.3465 12.8401 13.4308 12.3256 13.4308C11.8114 13.4308 11.2903 13.3465 10.7767 13.1805C10.2512 13.0107 9.82512 12.823 9.51128 12.6227C9.14708 12.39 8.81749 12.1776 8.53167 11.9914C8.07445 11.6935 7.83751 11.5929 7.59252 11.5929C6.9685 11.5929 6.38549 11.6986 5.85943 11.907C5.33172 12.1159 4.87487 12.4028 4.50152 12.7601C4.14483 13.1014 3.82696 13.5157 3.5567 13.9916C3.29614 14.4503 3.0852 14.9288 2.92993 15.4138C2.77997 15.8827 2.65454 16.3956 2.55713 16.9383C2.46045 17.4763 2.39508 17.9866 2.36267 18.4554C2.33081 18.9137 2.3147 19.3907 2.3147 19.8726C2.3147 21.1254 2.71295 22.1396 3.49829 22.8876C4.27392 23.6257 5.30004 24 6.54827 24H18.1044C19.3523 24 20.3784 23.6257 21.1542 22.8876C21.9397 22.1402 22.338 21.1256 22.338 19.8724C22.3378 19.3888 22.3215 18.9118 22.2895 18.4548ZM20.1845 21.8686C19.672 22.3564 18.9915 22.5935 18.1042 22.5935H6.54827C5.66076 22.5935 4.98034 22.3564 4.46801 21.8688C3.96539 21.3903 3.72113 20.7372 3.72113 19.8726C3.72113 19.4229 3.73596 18.9789 3.76562 18.5526C3.79455 18.1344 3.8537 17.675 3.9414 17.1868C4.02801 16.7047 4.13824 16.2522 4.26934 15.8426C4.39514 15.4499 4.56671 15.061 4.77948 14.6863C4.98254 14.3293 5.21618 14.0229 5.47399 13.7761C5.71514 13.5452 6.0191 13.3562 6.37725 13.2145C6.70849 13.0834 7.08074 13.0116 7.48485 13.0008C7.53411 13.027 7.62182 13.077 7.76391 13.1697C8.05303 13.3581 8.38628 13.573 8.75469 13.8083C9.16997 14.0731 9.705 14.3122 10.3442 14.5186C10.9977 14.7299 11.6642 14.8372 12.3258 14.8372C12.9873 14.8372 13.654 14.7299 14.3072 14.5188C14.9469 14.3121 15.4818 14.0731 15.8976 13.808C16.2746 13.567 16.5985 13.3583 16.8877 13.1697C17.0298 13.0772 17.1175 13.027 17.1667 13.0008C17.571 13.0116 17.9433 13.0834 18.2747 13.2145C18.6327 13.3562 18.9366 13.5454 19.1778 13.7761C19.4356 14.0227 19.6692 14.3291 19.8723 14.6865C20.0852 15.061 20.257 15.4501 20.3826 15.8424C20.5139 16.2526 20.6243 16.7049 20.7107 17.1866C20.7982 17.6757 20.8576 18.1353 20.8865 18.5528V18.5531C20.9163 18.9778 20.9314 19.4216 20.9315 19.8726C20.9314 20.7374 20.6871 21.3903 20.1845 21.8686Z" fill="#E7ECFD"/>
</svg>
